<svg xmlns="http://www.w3.org/2000/svg" id="Layer_1" data-name="Layer 1" viewBox="0 0 200 100"><defs></defs><path class="cls-1" d="M42.56,37.25v19.35c0,.65-.53,1.18-1.18,1.18h-6.11c-.65,0-1.18-.53-1.18-1.18V25.13c0-.65,.53-1.18,1.18-1.18h5.65c.65,0,1.18,.53,1.18,1.18v4.43s2.02-6.32,8.02-6.32c0,0,5.93-.72,8.34,5.87,0,0,2.02-5.87,8.15-5.87,0,0,9.11-.54,9.11,8.89l.07,5.19v19.35c0,.65-.53,1.18-1.18,1.18h-6.11c-.65,0-1.18-.53-1.18-1.18l-.06-21.11c.17-4.78-3.69-4.43-3.69-4.43-4.87,.09-4.4,6.19-4.4,6.19v19.35c0,.65-.53,1.18-1.18,1.18h-6.11c-.65,0-1.18-.53-1.18-1.18v-20.63s.36-4.95-3.99-4.95c0,0-4.3-.56-4.15,6.17Zm157.44-.06v19.35c0,.65-.53,1.18-1.18,1.18l-6.35,.12c-.65,0-1.18-.53-1.18-1.18v-20.63s.36-4.95-3.99-4.95c0,0-4.15-.2-4.15,7.56v17.96c0,.65-.53,1.18-1.18,1.18h-6.11c-.65,0-1.18-.53-1.18-1.18V25.13c0-.65,.53-1.18,1.18-1.18h5.65c.65,0,1.18,.53,1.18,1.18h0v4.43s2.02-6.32,8.02-6.32c0,0,6.42-.97,8.59,5.74,0,0,.71,1.39,.71,8.21h0Zm-44.1-14.08c-7.81,0-14.14,6.58-14.14,17.66,0,9.75,4.89,17.66,14.14,17.66,8.73,0,14.14-7.91,14.14-17.66,0-10.88-6.33-17.66-14.14-17.66Zm4.93,18.05c0,4.17-.52,6.39-.52,6.39-.74,4.41-3.94,4.42-4.41,4.39-.51,.02-3.74-.03-4.41-4.39,0,0-.52-2.22-.52-6.39v-.7c0-4.17,.52-6.39,.52-6.39,.67-4.37,3.9-4.41,4.41-4.39,.47-.02,3.67-.02,4.41,4.39,0,0,.52,2.22,.52,6.39v.7Zm-22.62-11.64v-4.52c0-.65-.53-1.18-1.18-1.18h-20.19c-.65,0-1.18,.53-1.18,1.18h0v4.48c0,.65,.53,1.18,1.18,1.18h10.53l-12.46,18.08s-.49,.73-.47,1.54v5.5s-.08,1.89,2.06,.79c0,0,3.8-2.3,10.17-2.3,0,0,6.29-.08,10.48,2.49,0,0,1.74,.79,1.74-.95v-4.79s.16-1.27-1.5-2.06c0,0-4.83-2.65-11.16-2.22l11.99-17.25ZM29.38,52.15l-1.91-2.91c-.61-1.09-.56-2.3-.56-2.3v-13.43c.26-11.6-12.6-10.6-12.6-10.6C2.87,22.91,1.18,31.81,1.18,31.81c-.48,1.79,.91,1.83,.91,1.83l5.59,.57s.95,.22,1.3-.92c0,0,.74-3.88,4.85-3.88,4.48,0,4.43,3.84,4.43,3.84v3.22c-8.94,.3-13.08,2.78-13.08,2.78C-.34,42.37,0,48.59,0,48.59,0,58.71,9.65,58.28,9.65,58.28c6.17,0,9.82-4.52,9.82-4.52,1.09,1.91,3.09,3.74,3.09,3.74,1,1.08,2.04,.17,2.04,.17l4.52-3.87c1-.74,.26-1.65,.26-1.65Zm-16.72-.13c-2.9,0-3.98-2.88-3.5-5.72,.48-2.83,2.99-5.06,9.09-5v1.72c.22,7.53-3.18,8.99-5.59,8.99h0Zm97.88,.13l-1.91-2.91c-.61-1.09-.57-2.3-.57-2.3v-13.43c.26-11.6-12.6-10.6-12.6-10.6-11.43,0-13.12,8.9-13.12,8.9-.48,1.79,.91,1.83,.91,1.83l5.59,.57s.95,.22,1.3-.92c0,0,.74-3.88,4.85-3.88,4.48,0,4.43,3.84,4.43,3.84v3.22c-8.94,.3-13.08,2.78-13.08,2.78-5.52,3.13-5.17,9.34-5.17,9.34,0,10.12,9.65,9.69,9.65,9.69,6.17,0,9.82-4.52,9.82-4.52,1.09,1.91,3.08,3.74,3.08,3.74,1,1.08,2.04,.17,2.04,.17l4.52-3.87c1-.74,.26-1.65,.26-1.65h0Zm-16.72-.13c-2.9,0-3.98-2.88-3.5-5.72,.48-2.83,2.99-5.06,9.09-5v1.72c.22,7.53-3.18,8.99-5.59,8.99h0Z"></path><g><path class="cls-1" d="M125.92,77.56s-.51,.89,.12,1.09c0,0,.71,.28,1.59-.54,0,0,6.45-5.63,6.6-15.89,0,0,.05-1.28-.47-1.63,0,0-2.02-1.79-9.29-1.24,0,0-6.33,.43-9.79,3.5,0,0-.31,.27-.31,.62,0,0-.07,.75,1.83,.43,0,0,6.33-.89,10.1-.43,0,0,1.94,.23,2.49,.89,0,0,.89,.74,.43,3.19,0,0-1.28,6.22-3.3,10.02h0Z"></path><path class="cls-1" d="M124.64,67.72s.95,1.23-.58,2.28c0,0-16.3,13.04-43.68,13.04,0,0-28.18,1.39-51.7-19.99,0,0-.82-.72-.31-1.4,0,0,.46-.62,1.64,.05,0,0,22.13,13.79,51.2,13.79,0,0,20.2,.78,40.93-8.08,0,0,1.65-.86,2.5,.3h0Z"></path></g></svg>