<svg xmlns="http://www.w3.org/2000/svg" id="Layer_1" data-name="Layer 1" viewBox="0 0 200 100"><defs></defs><path class="cls-1" d="M20.86,55.2v-1.36c3.7,.28,7.52-.13,10.91-1.81,2.28-1.14,4.36-3.19,4.86-6.05-2.72,2.53-6.79,2.26-10.08,1.87-1.9-.23-3.79-.59-5.7-.91v-11.59h26.02v-9.53H10.24v20.61c-1.85,.27-3.65,.82-5.33,1.64-2.28,1.14-4.36,3.18-4.86,6.04,2.72-2.53,6.79-2.26,10.08-1.87l.11,.03v21.93H47.27v-9.16H20.86v-9.83Z"></path><polygon class="cls-1" points="89.03 55.6 66.09 25.81 56.41 25.81 56.41 74.19 67.04 74.19 67.04 43.43 90.74 74.19 99.65 74.19 99.65 25.81 89.03 25.81 89.03 55.6 89.03 55.6"></polygon><path class="cls-1" d="M142.53,50.14c0,8.61-5.85,14.53-14.53,14.53h-8.19v-29.32h8.19c8.67,0,14.53,6.04,14.53,14.66v.14h0Zm-14.42-24.33h-18.92v48.38h18.92c15.25,0,25.79-10.57,25.79-24.19v-.14c0-13.61-10.54-24.05-25.79-24.05h0Z"></path><polygon class="cls-1" points="187.86 25.81 176.13 45.23 164.61 25.81 152.19 25.81 170.75 55.11 170.75 74.19 181.38 74.19 181.38 54.91 199.94 25.81 187.86 25.81 187.86 25.81"></polygon></svg>