<svg xmlns="http://www.w3.org/2000/svg" viewBox="0 0 340 59"><path d="M0 28.5V57H3.25H6.5V44.15C6.5 32.05 6.55 31.2 7.55 29.1C9.65 24.8 14.95 22.3 22 22.3C24.35 22.3 27.15 22.55 28.25 22.9C31.25 23.75 34.25 25.9 35.45 28C36.45 29.8 36.5 30.6 36.5 43.45V57H39.75H43V43.1C43 26.95 42.75 25.7 39.15 22.2C32.45 15.65 16.5 15.45 8.2 21.75C7.3 22.45 6.45 23 6.3 23C6.15 23 6 17.8 6 11.5V-8.49366e-07H3H0V28.5Z"/><path d="M103.85 0.8C103.65 1 103.5 2.25 103.5 3.6V6H106.8H110.05L109.9 3.35L109.75 0.75L107 0.6C105.45 0.5 104.05 0.6 103.85 0.8Z"/><path d="M183.6 16.95C182.1 17.45 180.25 18.35 179.5 18.95C177.6 20.35 177.5 20.3 177.5 18.25V16.5H173.5H169.5V36.75V57H173.75H177.95L178.1 42.85L178.25 28.65L179.6 26.9C181.8 24 184.95 22.8 190.05 22.8C195.05 22.85 198.25 24.05 200.1 26.65C201.2 28.2 201.25 28.6 201.4 42.65L201.55 57H205.75H209.95L210.1 43.1L210.25 29.15L211.7 27.25C212.6 26.1 214.25 24.9 215.95 24.1C221.05 21.7 228.8 22.65 231.8 26.05C233.8 28.3 234 30.1 234 43.8V57H238H242V42.85C242 26.15 241.8 25.25 237.75 21.2C234.4 17.85 230.8 16.45 224.7 16.1C218.1 15.8 214.05 17.1 208.9 21.15L207.05 22.65L204.55 20.4C201.15 17.3 197 16 190.85 16C187.7 16.05 185.4 16.35 183.6 16.95Z"/><path d="M263.1 16.7501C255.6 18.8501 251 23.7501 251 29.6001V32.0501L254.8 31.9001L258.65 31.7501L259.25 29.4001C260.6 24.0501 263.45 22.3501 271 22.3001C273.65 22.2501 276.8 22.5501 278.15 22.9501C283.45 24.5001 284.75 29.8001 280.2 31.5001C279.6 31.7501 274.2 32.5001 268.25 33.2001C256.35 34.6501 253.5 35.4501 251.05 38.2501C247.8 41.9501 248.05 48.2001 251.55 52.2001C257.2 58.6501 271.45 60.0001 280.4 54.9501C281.8 54.1501 283 53.6501 283.05 53.8501C283.1 54.1001 283.05 54.8501 283 55.6001L282.9 57.0001H286.95H291V41.1501C291 26.1001 290.95 25.2001 289.95 23.1501C288.7 20.6001 286.55 18.8001 282.9 17.4001C279.4 16.0001 267.2 15.6001 263.1 16.7501ZM283.5 38.5001C283.5 43.5001 281.3 47.5501 277.5 49.5001C274.8 50.9001 269.4 51.7001 265.4 51.3001C259.25 50.7501 257 49.1001 257 45.1501C257 41.4001 259.35 40.1501 267.9 39.4501C274.95 38.9001 279.95 38.2001 281.55 37.5501C283.35 36.8001 283.5 36.9001 283.5 38.5001Z"/><path d="M294.5 16.9C294.5 17.1 298.25 21.6 302.8 26.9L311.1 36.55L307.65 40.4C305.75 42.5 301.65 47.1 298.55 50.6L292.9 57L298.1 56.95H303.25L309.4 49.7C312.75 45.75 315.75 42.5 315.95 42.5C316.2 42.5 319.25 45.75 322.7 49.75L329.05 57H334.05C337.95 57 338.95 56.85 338.7 56.35C338.45 56.05 334.5 51.45 329.85 46.15L321.45 36.55L329.7 26.9C334.3 21.6 338 17.1 338 16.9C338 16.65 336 16.5 333.5 16.5H329.05L322.95 23.75C319.55 27.75 316.7 31 316.55 31C316.4 31 313.6 27.75 310.3 23.75L304.4 16.5H299.45C296.7 16.5 294.5 16.65 294.5 16.9Z"/><path d="M66.65 17.75C58.6 19.5 53.95 23.7 53.4 29.75L53.25 31.25L56.3 31.4L59.35 31.55L59.95 29.15C61.4 23.55 64.6 21.75 73.25 21.75C81.6 21.75 85.25 23.55 85.85 27.95C86.2 30.35 85.3 31.7 82.6 32.85C81.7 33.2 76.1 34.1 70.1 34.75C60.8 35.85 58.85 36.2 56.5 37.4C53.35 38.95 51.7 41.1 51.25 44.2C50.6 48.55 53.25 53.35 57.6 55.55C65.45 59.55 78.2 58.45 84.45 53.25C85.8 52.1 86.05 52 86.3 52.75C86.5 53.2 86.5 54.3 86.35 55.25L86.05 57H89.05H92V41.5C92 27.2 91.9 25.8 91.05 24.1C89.2 20.5 86.3 18.75 80.55 17.7C75.8 16.85 70.65 16.9 66.65 17.75ZM86.35 40C85.75 49.3 81 53 69.8 53C63.65 53 61.3 52.4 59.15 50.25C57.75 48.85 57.5 48.25 57.5 46.1C57.5 41.25 60.05 39.9 70.75 39C78.1 38.4 82.2 37.7 84 36.7C86.45 35.4 86.65 35.65 86.35 40Z"/><path d="M103.5 37.5V57H106.75H110V37.5V18H106.75H103.5V37.5Z"/><path fill-rule="evenodd" clip-rule="evenodd" d="M131.5 21.7C132.6 20.45 136.1 18.6 139 17.75C148.05 15.25 158.45 19.9 160.7 27.55C161.219 29.2867 161.523 30.354 161.491 31H155.684C155.553 30.725 155.446 30.3545 155.3 29.85C154.05 25.5 150 22.55 144.75 22.1C138.95 21.65 133.75 24.2 131.35 28.65C130.3 30.65 130.25 31.45 130.1 43.85L129.95 57H126.95H124V37.5V18H127H130V20.25C130 22.6 130.45 23.05 131.5 21.7Z"/></svg>
