<svg xmlns="http://www.w3.org/2000/svg" id="Layer_1" data-name="Layer 1" viewBox="0 0 200 100"><defs></defs><g><path id="s" class="cls-1" d="M69.11,53.14c-1.7-.94-2.6-1.7-2.6-2.78,0-1.39,1.21-2.24,3.13-2.24,2.24,0,4.21,.94,4.21,.94l1.57-4.79s-1.43-1.12-5.69-1.12c-5.91,0-10.03,3.4-10.03,8.15,0,2.69,1.93,4.75,4.48,6.22,2.06,1.16,2.78,2.01,2.78,3.22,0,1.3-1.03,2.33-2.95,2.33-2.87,0-5.55-1.48-5.55-1.48l-1.66,4.79s2.51,1.66,6.67,1.66c6.09,0,10.43-3,10.43-8.37,.09-2.95-2.15-5.01-4.79-6.54Z"></path><path id="h" class="cls-1" d="M93.37,43.06c-3,0-5.33,1.43-7.16,3.58l-.09-.04,2.6-13.61h-6.8l-6.58,34.61h6.76l2.24-11.82c.9-4.48,3.18-7.21,5.33-7.21,1.52,0,2.1,1.03,2.1,2.51,0,.94-.09,2.06-.31,3l-2.55,13.57h6.76l2.64-13.97c.31-1.48,.49-3.22,.49-4.43,.09-3.89-1.88-6.18-5.42-6.18Z"></path><path id="o" class="cls-1" d="M114.19,43.06c-8.15,0-13.57,7.34-13.57,15.54,0,5.24,3.22,9.49,9.31,9.49,8.01,0,13.39-7.16,13.39-15.54,.04-4.88-2.78-9.49-9.13-9.49Zm-3.31,19.79c-2.33,0-3.27-1.97-3.27-4.43,0-3.89,2.01-10.21,5.69-10.21,2.42,0,3.18,2.06,3.18,4.07,0,4.21-2.01,10.57-5.6,10.57Z"></path><path id="p" class="cls-1" d="M140.7,43.06c-4.57,0-7.16,4.03-7.16,4.03h-.09l.4-3.63h-6c-.31,2.46-.85,6.18-1.39,9l-4.7,24.71h6.76l1.88-10.03h.13s1.39,.9,3.98,.9c7.97,0,13.16-8.15,13.16-16.39,0-4.52-2.01-8.6-6.98-8.6Zm-6.45,19.92c-1.75,0-2.78-.98-2.78-.98l1.12-6.31c.81-4.21,3-7.03,5.33-7.03,2.06,0,2.69,1.93,2.69,3.72,0,4.34-2.6,10.61-6.36,10.61Z"></path><path id="dot" class="cls-1" d="M157.35,33.35c-2.15,0-3.89,1.7-3.89,3.94,0,2.01,1.25,3.4,3.18,3.4h.09c2.1,0,3.94-1.43,3.98-3.94,.04-2.01-1.3-3.4-3.36-3.4Z"></path><polygon id="i" class="cls-1" points="147.86 67.6 154.66 67.6 159.28 43.6 152.43 43.6 147.86 67.6"></polygon><path id="f" class="cls-1" d="M176.47,43.55h-4.7l.22-1.12c.4-2.33,1.75-4.39,4.03-4.39,1.21,0,2.15,.36,2.15,.36l1.34-5.28s-1.16-.58-3.67-.58-4.79,.67-6.63,2.24c-2.33,1.97-3.4,4.79-3.94,7.66l-.18,1.12h-3.13l-.98,5.1h3.13l-3.58,18.94h6.76l3.58-18.94h4.66l.94-5.1Z"></path><path id="y" class="cls-1" d="M192.76,43.6s-4.25,10.66-6.13,16.48h-.09c-.13-1.88-1.66-16.48-1.66-16.48h-7.12l4.07,22.03c.09,.49,.04,.81-.13,1.12-.81,1.52-2.1,3-3.67,4.07-1.25,.94-2.69,1.52-3.81,1.93l1.88,5.73c1.39-.31,4.21-1.43,6.63-3.67,3.09-2.91,5.95-7.34,8.86-13.43l8.28-17.77s-7.12,0-7.12,0Z"></path></g><g><path class="cls-1" d="M33.47,28.02s-.63,.18-1.66,.49c-.18-.58-.45-1.25-.81-1.97-1.16-2.24-2.91-3.45-4.97-3.45h0c-.13,0-.27,0-.45,.04-.04-.09-.13-.13-.18-.22-.9-.98-2.06-1.43-3.45-1.39-2.69,.09-5.37,2.01-7.52,5.46-1.52,2.42-2.69,5.46-3,7.83-3.09,.94-5.24,1.61-5.28,1.66-1.57,.49-1.61,.54-1.79,2.01C4.24,39.61,.12,71.13,.12,71.13l33.85,5.86V27.97c-.27,0-.4,.04-.49,.04Zm-7.83,2.42c-1.79,.54-3.76,1.16-5.69,1.75,.54-2.1,1.61-4.21,2.87-5.6,.49-.49,1.16-1.07,1.93-1.43,.76,1.61,.94,3.81,.9,5.28Zm-3.67-7.07c.63,0,1.16,.13,1.61,.4-.72,.36-1.43,.94-2.1,1.61-1.7,1.84-3,4.7-3.54,7.43-1.61,.49-3.22,.98-4.7,1.43,.98-4.3,4.61-10.79,8.73-10.88Zm-5.19,24.62c.18,2.87,7.75,3.49,8.19,10.25,.31,5.33-2.82,8.95-7.34,9.22-5.46,.36-8.46-2.87-8.46-2.87l1.16-4.92s3,2.28,5.42,2.1c1.57-.09,2.15-1.39,2.1-2.28-.22-3.76-6.4-3.54-6.8-9.72-.36-5.19,3.04-10.43,10.57-10.92,2.91-.18,4.39,.54,4.39,.54l-1.7,6.45s-1.93-.9-4.21-.72c-3.31,.22-3.36,2.33-3.31,2.87Zm10.66-18.09c0-1.34-.18-3.27-.81-4.88,2.06,.4,3.04,2.69,3.49,4.07-.81,.22-1.7,.49-2.69,.81Z"></path><path class="cls-1" d="M34.99,76.91l14.06-3.49s-6.04-40.87-6.09-41.14c-.04-.27-.27-.45-.49-.45s-4.16-.09-4.16-.09c0,0-2.42-2.33-3.31-3.22v48.4Z"></path></g></svg>