<svg xmlns="http://www.w3.org/2000/svg" id="Layer_1" data-name="Layer 1" viewBox="0 0 200 100"><defs></defs><polygon class="cls-1" points="25.95 37.85 22.24 62.25 28.3 62.25 32.02 37.85 25.95 37.85"></polygon><path class="cls-1" d="M10.6,40.29c.15-1.08,1.03-1.71,2.89-1.71,.78,0,1.52,.15,2.05,.54,.54,.39,.88,1.03,.88,2.05h8.02c.2-5.23-2.4-9.44-9.49-9.44-6.41,0-11.54,3.23-12.52,9.54-1.71,11.3,13.45,8.21,12.76,12.71-.24,1.42-1.71,2.2-3.81,2.2-.78,0-1.66-.24-2.25-.73-.64-.49-1.03-1.27-1.03-2.35H.09c-.64,5.33,3.08,9.93,9.83,9.93s12.47-3.33,13.5-10.22c1.61-10.81-13.5-8.07-12.81-12.52Z"></path><path class="cls-1" d="M167.71,57.31c-1.71,0-1.81-.59-1.56-2.2l.88-6.5h2.93l.64-4.06h-2.93l.83-5.53h-5.97l-.83,5.53h-2.25l-.59,4.01c-.24-2.93-1.81-4.5-4.89-4.5-2.3,0-3.96,1.12-5.67,3.28l.44-2.79h-5.53l-2.69,17.75h6.06l1.37-9.05c.34-2.25,1.03-3.67,2.93-3.67,1.71,0,1.91,1.56,1.61,3.33l-1.42,9.39h6.06l1.61-10.61c.2-1.12,.2-2.15,.15-3.03h2.15l-1.12,7.43c-.93,6.11-.05,6.75,7.97,6.26l.78-5.04h-.98Z"></path><path class="cls-1" d="M76.71,44.01c-1.76,0-4.11,.98-5.28,3.13h-.05l.39-2.64h-5.43l-1.37,9.19c.54-5.72-2.2-9.68-7.48-9.68-4.4,0-8.31,2.98-9.68,7.73-.2-4.65-2.89-7.73-7.53-7.73-4.89,0-9.24,3.72-10.12,9.54-.93,5.97,2.4,9.19,7.29,9.19,3.57,0,7.63-1.47,9.34-5.82h-5.77c-.59,1.03-1.56,1.52-2.54,1.52-1.61,0-2.84-1.37-2.49-3.47h11.25c-.2,5.09,2.93,7.77,7.43,7.77,3.57,0,7.63-1.47,9.34-5.82h-5.77c-.59,1.03-1.56,1.52-2.54,1.52-1.61,0-2.84-1.37-2.49-3.47h11.59l-2,13.3h6.06l1.17-7.77c.78,1.47,1.91,2.25,3.57,2.25,3.42,0,7.53-2.54,8.56-9.49,.73-4.84-.83-9.24-5.43-9.24Zm-34.67,7.38h-5.53c.29-1.86,1.47-3.03,3.33-3.03,1.42,0,2.44,1.42,2.2,3.03Zm17.26,0h-5.53c.29-1.86,1.47-3.03,3.33-3.03,1.42,0,2.44,1.42,2.2,3.03Zm16.77,1.96c-.39,2.44-1.61,4.06-3.23,4.06s-2.25-1.71-1.86-4.16c.34-2.35,1.61-4.01,3.08-4.01,1.56,0,2.44,1.32,2,4.11Z"></path><path class="cls-1" d="M136.46,44.6l-1.27,8.51c-.39,2.74-1.17,4.25-2.93,4.25-1.47,0-2.1-.78-1.71-3.23l1.47-9.58h-6.06l-1.66,10.81c-.73,5.09,1.03,7.43,4.35,7.43,2.49,0,4.06-.68,5.97-3.13l-.39,2.59h5.62l2.69-17.65h-6.06Z"></path><path class="cls-1" d="M117.05,44.01c-4.3,0-7.77,2.35-9.34,6.7h-7.77c-.73,2.84-2.35,5.04-5.04,5.04-4.25,0-4.45-3.91-3.81-8.07,.88-5.72,3.08-8.65,6.01-8.65,2.64,0,4.01,1.76,3.81,4.84h7.97c.49-7.63-3.18-12.13-11-12.13-7.14,0-13.64,6.01-15.11,15.6-1.47,9.63,2.74,15.7,11.2,15.7,5.72,0,10.51-3.33,13.01-9.1-.73,5.82,2.54,8.8,7.33,8.8s9.14-3.03,10.12-9.54c.73-5.48-2-9.19-7.38-9.19Zm3.13,11.74l-2.93,.98-.24,.98-2.1-1.17-.73,1.76-.54-.2,.73-1.76-2.3-.49,.54-.73-1.61-2.79,.68-.34,.24-1.61,1.27,.78,.64-.49,.93,1.61,.59-2.98,.73,.78,1.52-1.12,.29,1.86,1.17-.1-1.71,2.69,1.96-.73,.05,.78,1.52,.2-.88,1.37,.2,.73Z"></path><path class="cls-1" d="M194.16,44.55l-4.3,10.95-1.03-10.95h-6.06l2.54,16.14c.34,1.96-.2,2.59-2.1,2.59-.39,0-.78-.05-1.22-.05l-.73,4.89c.44,0,1.52,.15,2.64,.15,5.38,0,6.26-1.71,8.7-7.19l7.38-16.53h-5.82Z"></path><path class="cls-1" d="M181.74,48.17l.59-3.67,.05-.44c-.24-.05-.54-.1-.78-.1-2.4,0-4.06,1.32-5.33,4.11h-.05l.54-3.57h-5.48l-2.69,17.75h6.06l.93-6.11c.59-3.81,2-5.18,4.5-5.18,.39,0,.83,.15,1.22,.2l.44-2.98Z"></path></svg>