<svg xmlns="http://www.w3.org/2000/svg" id="Layer_1" data-name="Layer 1" viewBox="0 0 200 100"><defs></defs><path class="cls-1" d="M175.67,42.23c1.11,0,2.03-.58,2.15-1.33l1.1-12.44c0-1.23-1.44-2.24-3.25-2.24s-3.25,1.01-3.25,2.24l1.1,12.44c.12,.75,1.04,1.33,2.15,1.33h0m-6.72,3.88c.56-.96,.52-2.05-.07-2.53l-10.22-7.17c-1.06-.62-2.66,.13-3.56,1.69-.91,1.57-.75,3.32,.31,3.93l11.32,5.27c.71,.26,1.67-.24,2.23-1.21h0m13.45,0c.56,.96,1.52,1.47,2.23,1.21l11.32-5.27c1.07-.62,1.22-2.37,.32-3.93-.91-1.57-2.51-2.31-3.57-1.69l-10.22,7.17c-.58,.48-.63,1.56-.07,2.53h0m-6.73,11.65c1.11,0,2.03,.57,2.15,1.32l1.1,12.43c0,1.23-1.44,2.24-3.25,2.24s-3.25-1.01-3.25-2.24l1.1-12.43c.12-.75,1.04-1.32,2.15-1.32h0m6.73-3.89c.56-.97,1.52-1.47,2.23-1.2l11.32,5.27c1.07,.62,1.22,2.37,.32,3.94-.91,1.56-2.51,2.31-3.57,1.69l-10.22-7.16c-.58-.48-.63-1.57-.07-2.53h0m-13.45,0c.56,.96,.52,2.05-.07,2.53l-10.22,7.16c-1.06,.61-2.66-.13-3.56-1.69-.91-1.57-.75-3.32,.31-3.94l11.32-5.27c.71-.27,1.67,.24,2.23,1.2h0"></path><path class="cls-1" d="M111.2,56.39c0,.38-.03,.78-.14,1.12-.43,1.44-1.92,2.65-3.78,2.65-1.55,0-2.78-.88-2.78-2.74,0-2.85,3.13-3.63,6.7-3.61v2.58s0,0,0,0Zm5.6-4.96c0-4.7-2.01-8.83-8.79-8.83-3.48,0-6.24,.98-7.75,1.85l1.1,3.77c1.38-.87,3.57-1.59,5.65-1.59,3.44,0,4,1.95,4,3.2v.3c-7.5-.01-12.23,2.58-12.23,7.87,0,3.23,2.41,6.26,6.61,6.26,2.58,0,4.74-1.03,6.03-2.68h.13s.85,3.58,5.57,2.21c-.25-1.49-.33-3.08-.33-4.99v-7.37M0,36.21s4.9,20.07,5.68,23.33c.91,3.8,2.56,5.2,7.3,4.26l3.06-12.44c.78-3.09,1.29-5.3,1.79-8.44h.09c.35,3.18,.85,5.36,1.49,8.45,0,0,1.24,5.65,1.88,8.62,.64,2.97,2.42,4.84,7.06,3.82l7.29-27.58h-5.88l-2.49,11.93c-.67,3.47-1.28,6.18-1.74,9.36h-.08c-.43-3.15-.97-5.75-1.65-9.13l-2.59-12.15h-6.13l-2.77,11.85c-.78,3.6-1.52,6.51-1.99,9.58h-.08c-.48-2.89-1.12-6.54-1.8-10.03,0,0-1.65-8.47-2.22-11.4H0m46.76,20.18c0,.38-.03,.78-.14,1.12-.43,1.44-1.92,2.65-3.78,2.65-1.55,0-2.78-.88-2.78-2.74,0-2.85,3.13-3.63,6.7-3.61v2.58s0,0,0,0Zm5.6-4.96c0-4.7-2.01-8.83-8.78-8.83-3.48,0-6.24,.98-7.75,1.85l1.1,3.77c1.38-.87,3.57-1.59,5.65-1.59,3.44,0,4,1.95,4,3.2v.3c-7.5-.01-12.23,2.58-12.23,7.87,0,3.23,2.41,6.26,6.6,6.26,2.58,0,4.74-1.03,6.03-2.68h.13s.86,3.58,5.58,2.21c-.25-1.49-.33-3.08-.33-4.99v-7.37m9.34,6.51v-21.73h-5.6v27.58h5.6v-5.86m73.29-21.73v20.35c0,2.81,.53,4.77,1.66,5.97,.99,1.05,2.61,1.73,4.56,1.73,1.66,0,3.29-.32,4.05-.6l-.07-4.38c-.57,.14-1.23,.25-2.13,.25-1.91,0-2.55-1.22-2.55-3.74v-7.79h4.88v-5.28h-4.88v-6.52h-5.53m-14.46,6.86v20.72h5.78v-10.61c0-.57,.03-1.07,.13-1.53,.43-2.22,2.13-3.64,4.57-3.64,.67,0,1.15,.07,1.67,.15v-5.42c-.44-.09-.73-.13-1.27-.13-2.16,0-4.61,1.39-5.64,4.38h-.16v-3.91h-5.07m-54.91,0v20.72h5.63v-12.15c0-.57,.07-1.17,.26-1.7,.47-1.22,1.61-2.66,3.42-2.66,2.27,0,3.33,1.92,3.33,4.69v11.81h5.63v-12.3c0-.54,.07-1.2,.24-1.68,.46-1.39,1.69-2.52,3.38-2.52,2.3,0,3.41,1.89,3.41,5.15v11.35h5.63v-12.21c0-6.44-3.27-8.98-6.96-8.98-1.63,0-2.92,.41-4.09,1.12-.98,.6-1.86,1.46-2.62,2.58h-.08c-.89-2.23-2.98-3.71-5.71-3.71-3.5,0-5.08,1.78-6.04,3.28h-.08v-2.82h-5.34"></path><path class="cls-1" d="M198.78,62.78h.08c.11,0,.19-.05,.19-.12,0-.08-.07-.12-.17-.12-.04,0-.07,0-.1,0v.23h0s0,0,0,0Zm-.01,.56h-.3v-.98c.07-.01,.23-.04,.43-.04,.22,0,.32,.03,.39,.08,.06,.04,.11,.12,.11,.21s-.09,.18-.23,.22h0c.11,.04,.17,.12,.2,.26,.03,.14,.05,.2,.07,.23h-.34s-.05-.12-.07-.21c-.02-.1-.07-.15-.17-.15h-.1v.36s0,0,0,0Zm.12-1.29c-.43,0-.75,.35-.75,.8s.33,.79,.77,.79c.44,0,.77-.35,.77-.8s-.33-.79-.77-.79h0Zm.02-.26c.6,0,1.08,.47,1.08,1.05s-.48,1.06-1.08,1.06-1.09-.47-1.09-1.06,.48-1.05,1.09-1.05h0"></path></svg>