<svg xmlns="http://www.w3.org/2000/svg" width="986" height="354" viewBox="0 0 986 354">
<g>
<path d="M 952.05 337.90 L 946.50 340.50 L 479.74 340.75 L 12.97 341.01 L 13.24 190.25 L 13.50 39.50 L 16.17 33.80 C19.58,26.54 26.54,19.58 33.80,16.17 L 39.50 13.50 L 506.75 13.25 L 974.00 12.99 L 973.99 160.75 C973.99,168.34 973.99,175.57 973.99,182.43 C973.99,305.04 973.99,314.27 969.92,321.06 C969.36,321.99 968.72,322.88 967.99,324.01 C963.93,330.34 959.00,334.64 952.05,337.90 ZM 581.50 314.52 C584.73,315.56 607.09,314.79 613.79,313.42 C640.39,307.97 662.70,291.26 675.92,266.91 L 679.75 259.83 L 681.84 266.67 C687.37,284.84 703.60,299.43 724.70,305.18 C735.07,308.01 757.23,308.27 767.00,305.68 C782.90,301.46 797.69,291.44 805.25,279.76 L 808.50 274.74 L 809.00 291.12 L 809.50 307.50 L 855.94 307.76 C906.30,308.04 908.51,307.86 919.68,302.44 C935.53,294.74 946.26,274.19 943.02,257.72 C940.22,243.46 933.70,235.84 911.94,221.41 C893.91,209.45 887.68,204.26 884.96,198.92 C882.42,193.93 882.48,191.47 885.22,189.56 C887.10,188.24 891.70,188.00 915.22,188.00 L 943.00 188.00 L 943.00 146.00 L 877.50 145.96 L 883.00 142.94 C897.31,135.07 904.86,122.35 906.44,103.50 C907.28,93.40 905.97,86.47 901.48,77.31 C894.89,63.89 880.45,52.30 865.02,48.06 C858.14,46.16 854.76,46.00 822.77,46.00 L 788.00 46.00 L 788.00 118.00 L 738.00 118.00 L 738.00 46.00 L 696.00 46.00 L 696.00 91.58 C696.00,122.46 695.67,137.06 694.97,136.82 C694.40,136.63 689.04,130.49 683.07,123.17 L 672.20 109.86 L 676.08 104.18 C681.64,96.06 683.60,87.67 682.14,78.24 C680.10,65.00 672.98,55.08 661.45,49.42 L 655.50 46.50 L 576.00 45.91 L 576.00 61.46 C576.00,70.01 575.66,76.99 575.25,76.97 C574.84,76.95 572.92,74.19 571.00,70.82 C552.70,38.81 505.16,32.27 477.68,57.98 C474.01,61.42 471.00,63.74 471.00,63.14 C471.00,62.54 472.35,58.65 474.00,54.50 C475.65,50.35 477.00,46.73 477.00,46.45 C477.00,46.18 468.18,46.08 457.40,46.23 L 437.80 46.50 L 431.45 60.48 C427.97,68.17 424.71,74.60 424.23,74.76 C423.75,74.92 420.46,68.52 416.92,60.54 L 410.50 46.03 L 394.93 46.02 L 379.37 46.00 L 372.93 60.50 C369.39,68.47 366.09,74.86 365.59,74.70 C365.09,74.53 361.77,68.00 358.21,60.20 L 351.74 46.00 L 332.37 46.00 C321.72,46.00 313.00,46.19 313.00,46.43 C313.00,46.66 318.24,60.95 324.64,78.18 C331.03,95.40 337.51,112.88 339.03,117.00 C340.54,121.12 343.57,129.23 345.75,135.00 L 349.71 145.50 L 344.35 145.80 L 339.00 146.10 L 339.00 220.05 C339.00,260.72 338.66,294.00 338.25,293.99 C337.84,293.98 334.27,285.32 330.33,274.74 C326.39,264.16 314.31,232.10 303.48,203.50 C292.66,174.90 283.36,150.26 282.81,148.75 L 281.80 146.00 L 224.23 146.00 L 206.50 193.50 L 205.96 146.00 L 110.00 146.00 L 110.00 135.18 C110.00,121.30 111.66,115.45 116.93,110.68 C123.38,104.85 124.76,104.67 166.25,104.25 L 204.00 103.87 L 204.00 47.00 L 155.25 47.03 C118.97,47.06 104.58,47.41 99.00,48.41 C83.46,51.20 68.20,59.28 59.20,69.51 C53.91,75.52 47.64,87.73 45.06,97.03 C41.29,110.64 40.90,122.62 41.21,217.00 L 41.50 307.50 L 109.50 307.50 L 109.76 255.75 L 110.02 204.00 L 156.01 204.00 C181.30,204.00 202.00,204.17 202.00,204.38 C202.00,204.91 196.23,220.48 188.98,239.50 C175.27,275.50 164.00,305.92 164.00,306.94 C164.00,307.71 171.60,307.95 189.59,307.77 L 215.18 307.50 L 219.43 296.50 C221.77,290.45 223.97,284.71 224.32,283.73 C224.90,282.09 226.96,281.99 253.12,282.23 L 281.29 282.50 L 290.71 307.50 L 388.50 307.50 L 389.00 280.50 C389.43,257.17 389.68,253.91 390.80,256.50 C391.52,258.15 396.47,270.30 401.81,283.50 L 411.52 307.50 L 440.62 308.05 L 451.56 280.60 L 462.50 253.15 L 463.00 280.32 L 463.50 307.50 L 512.96 308.03 L 513.23 287.38 L 513.50 266.73 L 518.81 274.80 C524.29,283.14 534.28,293.34 542.45,298.97 C549.78,304.01 564.75,310.64 573.00,312.51 C577.12,313.44 580.95,314.35 581.50,314.52 ZM 755.41 267.73 C748.67,271.59 740.51,270.39 734.15,264.63 C733.36,263.91 732.69,263.32 732.12,262.65 C729.00,258.96 729.00,252.63 729.00,206.73 L 729.00 203.55 L 729.00 150.00 L 765.00 150.00 L 764.98 201.25 C764.96,229.44 764.54,254.27 764.04,256.42 C762.86,261.53 760.23,264.97 755.41,267.73 ZM 438.18 175.25 C431.85,191.06 426.41,204.00 426.08,204.00 C425.75,204.00 420.31,190.96 413.99,175.01 L 402.50 146.03 L 392.25 146.01 C386.61,146.01 382.00,145.69 382.00,145.30 C382.00,143.17 394.55,111.15 395.14,111.76 C395.53,112.17 398.95,120.82 402.74,131.00 L 409.63 149.50 L 438.50 149.50 L 448.48 122.75 C453.97,108.04 458.81,96.00 459.23,96.00 C459.65,96.00 460.00,98.39 460.00,101.32 C460.00,107.47 462.14,115.37 465.74,122.47 C468.74,128.39 478.74,139.16 484.91,143.12 L 489.32 145.96 L 469.50 146.23 L 449.68 146.50 ZM 528.83 120.13 C517.29,124.82 502.57,119.91 496.33,109.30 C486.77,93.03 499.10,73.68 519.07,73.61 C534.73,73.56 546.38,85.65 544.66,100.18 C543.57,109.48 538.10,116.37 528.83,120.13 ZM 864.78 262.44 C862.91,263.75 858.53,264.00 837.22,264.00 C817.18,264.00 812.05,263.74 812.69,262.75 C813.14,262.06 813.72,249.57 814.00,235.00 C814.49,209.11 814.54,208.57 816.24,211.69 C819.31,217.30 828.10,224.95 842.71,234.73 C864.39,249.23 871.28,257.89 864.78,262.44 ZM 679.00 172.50 C679.00,184.88 678.89,195.00 678.75,195.00 C678.61,194.99 676.94,191.97 675.03,188.28 C665.15,169.18 646.82,153.88 625.00,146.51 L 618.50 144.32 L 618.22 132.66 L 617.94 121.00 L 635.50 121.03 L 659.43 150.00 L 679.00 150.00 ZM 859.50 115.10 C856.29,116.59 853.03,116.96 842.92,116.98 C836.00,116.99 830.03,116.70 829.67,116.33 C829.30,115.97 829.00,106.97 829.00,96.33 L 829.00 77.00 L 841.25 77.01 C847.99,77.01 855.20,77.48 857.28,78.06 C864.86,80.17 871.93,89.17 871.98,96.78 C872.03,103.98 866.73,111.76 859.50,115.10 ZM 517.37 183.89 C515.79,186.70 514.16,189.00 513.75,189.00 C513.34,189.00 513.00,180.90 513.00,171.00 L 513.00 153.00 L 520.79 153.00 C541.37,153.00 561.02,141.73 571.00,124.21 C572.92,120.83 574.85,118.05 575.28,118.03 C575.71,118.01 575.93,123.69 575.78,130.65 L 575.50 143.31 L 566.89 145.99 C557.30,148.98 547.29,154.20 538.99,160.54 C531.38,166.35 520.80,177.78 517.37,183.89 ZM 928.32 108.12 C933.57,111.92 941.90,112.20 947.10,108.74 C951.21,106.01 955.00,98.91 955.00,93.95 C955.00,84.35 946.07,76.32 936.60,77.39 C927.37,78.43 921.00,85.01 921.00,93.50 C921.00,99.71 923.44,104.58 928.32,108.12 ZM 943.51 106.56 C932.02,111.36 921.08,100.93 925.49,89.39 C929.34,79.29 943.94,77.86 949.36,87.04 C953.22,93.57 950.16,103.78 943.51,106.56 ZM 639.34 89.89 C638.00,90.50 632.65,91.00 627.45,91.00 L 618.00 91.00 L 618.00 72.00 L 628.55 72.00 C638.41,72.00 639.25,72.16 641.55,74.45 C645.71,78.62 644.43,87.57 639.34,89.89 ZM 258.19 235.47 C257.37,236.30 239.17,236.09 238.68,235.25 C238.29,234.58 246.65,211.21 247.71,210.01 C247.95,209.74 248.67,210.41 249.31,211.51 C251.37,215.05 258.74,234.93 258.19,235.47 ZM 931.00 93.50 C931.00,102.97 931.01,103.00 933.50,103.00 C935.69,103.00 936.00,102.57 936.00,99.50 C936.00,97.00 936.45,96.00 937.55,96.00 C938.40,96.00 939.76,97.57 940.56,99.50 C941.68,102.17 942.62,103.00 944.51,103.00 C947.51,103.00 947.52,102.93 945.01,98.01 C943.79,95.63 943.40,93.87 944.01,93.50 C944.55,93.16 945.00,91.32 945.00,89.42 C945.00,85.35 942.62,84.00 935.43,84.00 L 931.00 84.00 ZM 825.64 153.55 C823.08,155.51 819.41,159.44 817.49,162.29 L 814.00 167.47 L 814.00 150.00 L 830.29 150.00 ZM 940.32 90.60 C939.48,92.81 936.00,92.33 936.00,90.00 C936.00,88.73 936.67,88.00 937.83,88.00 C940.19,88.00 941.00,88.84 940.32,90.60 Z" fill="rgb(1,1,1)">
<path d="M 256.70 230.14 C254.55,223.84 250.70,213.91 249.31,211.51 C248.67,210.41 247.95,209.74 247.71,210.01 C247.38,210.39 246.32,212.95 245.05,216.32 C246.22,212.93 247.00,210.35 247.00,209.75 C247.00,205.49 248.96,208.94 253.64,221.50 C254.84,224.73 255.91,227.74 256.70,230.14 ZM 242.18 224.15 C240.20,229.75 238.50,234.94 238.68,235.25 C238.70,235.28 238.74,235.31 238.80,235.34 C238.73,235.31 238.69,235.28 238.68,235.25 C238.45,234.86 240.00,229.98 242.18,224.15 ZM 258.17 235.50 C257.76,235.91 252.88,236.05 248.10,235.98 C252.82,236.04 257.65,235.90 258.18,235.49 C258.17,235.49 258.17,235.50 258.17,235.50 Z" fill="rgb(121,117,117)">
<path d="M 628.36 225.23 C627.71,226.28 562.25,226.21 561.60,225.17 C560.29,223.04 564.65,195.76 566.88,192.18 C567.55,191.11 568.88,191.20 574.10,192.65 C582.82,195.08 607.81,195.10 616.43,192.68 C619.68,191.77 622.50,191.17 622.68,191.35 C624.51,193.18 629.55,223.29 628.36,225.23 ZM 555.18 217.00 L 554.50 225.50 L 509.71 226.04 L 510.26 218.27 C511.19,205.00 518.93,187.43 528.88,176.00 L 532.80 171.50 L 535.65 173.75 C541.21,178.14 549.58,183.35 555.00,185.81 C558.03,187.18 560.63,188.39 560.78,188.51 C560.93,188.63 560.57,190.01 559.97,191.59 C558.07,196.57 555.88,208.19 555.18,217.00 ZM 680.00 221.66 L 680.00 226.00 L 658.06 226.00 C645.99,226.00 635.92,225.66 635.69,225.25 C635.45,224.84 634.94,220.68 634.56,216.00 C633.97,208.73 633.13,204.45 629.56,190.50 C629.13,188.83 630.31,187.89 636.77,184.78 C641.02,182.73 647.19,179.01 650.48,176.53 C653.77,174.04 656.77,172.00 657.15,172.00 C657.53,172.00 659.90,174.59 662.43,177.75 C671.52,189.15 680.00,210.33 680.00,221.66 ZM 576.18 263.43 C572.16,264.30 568.69,265.00 568.48,265.00 C567.06,265.00 562.00,242.70 562.00,236.45 L 562.00 232.00 L 628.28 232.00 L 627.61 239.36 C627.04,245.67 622.91,263.42 621.75,264.58 C621.54,264.80 618.02,264.26 613.93,263.40 C604.31,261.38 585.71,261.39 576.18,263.43 ZM 661.67 279.64 C659.56,282.04 657.31,283.97 656.67,283.93 C656.02,283.88 652.58,281.65 649.00,278.96 C645.42,276.28 639.23,272.60 635.24,270.79 C629.08,268.00 628.08,267.20 628.58,265.50 C631.27,256.44 633.94,244.35 634.49,238.75 L 635.16 232.00 L 680.28 232.00 L 679.67 237.75 C678.17,251.78 670.54,269.54 661.67,279.64 ZM 544.50 276.11 C541.75,277.88 538.10,280.64 536.39,282.23 L 533.27 285.13 L 528.31 279.56 C518.83,268.92 510.00,248.17 510.00,236.52 L 510.00 232.00 L 554.72 232.00 L 555.85 241.75 C556.47,247.11 557.88,254.43 558.98,258.00 C560.08,261.58 560.99,265.19 560.99,266.04 C561.00,266.95 558.63,268.67 555.25,270.23 C552.09,271.69 547.25,274.33 544.50,276.11 ZM 613.30 186.60 C607.45,187.96 591.78,189.21 589.00,188.53 C588.17,188.32 584.06,187.62 579.86,186.96 C575.66,186.30 571.70,185.43 571.05,185.03 C569.61,184.14 573.09,175.90 578.53,167.37 C583.79,159.11 593.22,148.04 595.00,148.02 C596.64,148.00 602.61,154.58 608.27,162.66 C612.51,168.71 620.36,183.98 619.61,184.72 C619.32,185.01 616.48,185.85 613.30,186.60 ZM 599.12 302.25 C597.18,304.31 595.32,306.00 594.99,306.00 C593.97,306.00 588.44,299.81 583.06,292.64 C578.06,285.98 570.45,272.22 571.29,271.38 C571.52,271.15 575.19,270.29 579.44,269.48 C589.53,267.55 602.98,267.60 611.82,269.59 C615.33,270.39 617.33,270.73 617.92,271.83 C618.64,273.18 617.22,275.69 613.84,281.64 C613.57,282.11 613.30,282.60 613.01,283.11 C608.55,290.97 604.55,296.48 599.12,302.25 ZM 616.06 307.89 C608.21,309.85 602.00,310.59 602.00,309.56 C602.00,309.32 603.88,306.96 606.17,304.31 C611.46,298.22 619.15,286.50 622.49,279.44 C623.90,276.45 625.61,274.00 626.28,274.01 C629.90,274.03 651.02,287.28 650.97,289.50 C650.92,291.19 640.93,297.93 632.50,301.95 C628.10,304.05 620.70,306.72 616.06,307.89 ZM 584.83 305.89 L 588.17 310.00 L 584.83 309.94 C573.58,309.76 551.27,300.53 540.69,291.68 L 537.88 289.33 L 543.62 285.00 C549.61,280.47 561.25,274.00 563.39,274.00 C564.07,274.00 566.57,277.82 568.93,282.48 C572.94,290.38 576.53,295.67 584.83,305.89 ZM 633.78 179.10 C630.63,180.70 627.71,182.00 627.28,182.00 C626.85,181.99 624.38,177.83 621.79,172.75 C619.20,167.66 614.93,160.62 612.29,157.11 C611.39,155.90 610.58,154.84 609.87,153.89 C606.52,149.46 605.21,147.73 605.59,147.19 C605.83,146.85 606.77,147.00 608.32,147.24 C608.83,147.32 609.41,147.41 610.05,147.50 C617.60,148.53 631.33,153.50 638.50,157.79 C644.99,161.68 651.00,166.15 651.00,167.08 C651.00,168.18 639.50,176.20 633.78,179.10 ZM 567.15 174.22 C565.14,178.47 563.05,181.95 562.50,181.96 C561.06,181.97 548.80,175.07 543.43,171.22 C540.91,169.41 539.03,167.40 539.26,166.73 C539.99,164.54 553.10,156.32 560.87,153.18 C568.83,149.96 573.61,148.62 580.72,147.59 L 584.94 146.99 L 577.87 156.74 C573.99,162.11 569.16,169.98 567.15,174.22 Z" fill="rgb(244,22,49)">
<path d="M 0.00 177.00 L 0.00 0.00 L 493.00 0.00 L 986.00 0.00 L 986.00 177.00 L 986.00 354.00 L 493.00 354.00 L 0.00 354.00 L 0.00 177.00 ZM 952.05 337.90 C959.00,334.64 963.93,330.34 967.99,324.01 C974.28,314.21 973.98,322.64 973.99,160.75 L 974.00 12.99 L 506.75 13.25 L 39.50 13.50 L 33.80 16.17 C26.54,19.58 19.58,26.54 16.17,33.80 L 13.50 39.50 L 13.24 190.25 L 12.97 341.01 L 479.74 340.75 L 946.50 340.50 L 952.05 337.90 ZM 581.50 314.52 C580.95,314.35 577.12,313.44 573.00,312.51 C564.75,310.64 549.78,304.01 542.45,298.97 C534.28,293.34 524.29,283.14 518.81,274.80 L 513.50 266.73 L 513.23 287.38 L 512.96 308.03 L 488.23 307.77 L 463.50 307.50 L 463.00 280.32 L 462.50 253.15 L 451.56 280.60 L 440.62 308.05 L 426.07 307.78 L 411.52 307.50 L 401.81 283.50 C396.47,270.30 391.52,258.15 390.80,256.50 C389.68,253.91 389.43,257.17 389.00,280.50 L 388.50 307.50 L 339.61 307.50 L 290.71 307.50 L 286.00 295.00 L 281.29 282.50 L 253.12 282.23 C226.96,281.99 224.90,282.09 224.32,283.73 C223.97,284.71 221.77,290.45 219.43,296.50 L 215.18 307.50 L 189.59 307.77 C171.60,307.95 164.00,307.71 164.00,306.94 C164.00,305.92 175.27,275.50 188.98,239.50 C196.23,220.48 202.00,204.91 202.00,204.38 C202.00,204.17 181.30,204.00 156.01,204.00 L 110.02 204.00 L 109.76 255.75 L 109.50 307.50 L 75.50 307.50 L 41.50 307.50 L 41.21 217.00 C40.90,122.62 41.29,110.64 45.06,97.03 C47.64,87.73 53.91,75.52 59.20,69.51 C68.20,59.28 83.46,51.20 99.00,48.41 C104.58,47.41 118.97,47.06 155.25,47.03 L 204.00 47.00 L 204.00 75.44 L 204.00 103.87 L 166.25 104.25 C124.76,104.67 123.38,104.85 116.93,110.68 C111.66,115.45 110.00,121.30 110.00,135.18 L 110.00 146.00 L 157.98 146.00 L 205.96 146.00 L 206.23 169.75 L 206.50 193.50 L 215.37 169.75 L 224.23 146.00 L 253.02 146.00 L 281.80 146.00 L 282.81 148.75 C283.36,150.26 292.66,174.90 303.48,203.50 C314.31,232.10 326.39,264.16 330.33,274.74 C334.27,285.32 337.84,293.98 338.25,293.99 C338.66,294.00 339.00,260.72 339.00,220.05 L 339.00 146.10 L 344.35 145.80 L 349.71 145.50 L 345.75 135.00 C343.57,129.23 340.54,121.12 339.03,117.00 C337.51,112.88 331.03,95.40 324.64,78.18 C318.24,60.95 313.00,46.66 313.00,46.43 C313.00,46.19 321.72,46.00 332.37,46.00 L 351.74 46.00 L 358.21 60.20 C361.77,68.00 365.09,74.53 365.59,74.70 C366.09,74.86 369.39,68.47 372.93,60.50 L 379.37 46.00 L 394.93 46.02 L 410.50 46.03 L 416.92 60.54 C420.46,68.52 423.75,74.92 424.23,74.76 C424.71,74.60 427.97,68.17 431.45,60.48 L 437.80 46.50 L 457.40 46.23 C468.18,46.08 477.00,46.18 477.00,46.45 C477.00,46.73 475.65,50.35 474.00,54.50 C472.35,58.65 471.00,62.54 471.00,63.14 C471.00,63.74 474.01,61.42 477.68,57.98 C505.16,32.27 552.70,38.81 571.00,70.82 C572.92,74.19 574.84,76.95 575.25,76.97 C575.66,76.99 576.00,70.01 576.00,61.46 L 576.00 45.91 L 615.75 46.21 L 655.50 46.50 L 661.45 49.42 C672.98,55.08 680.10,65.00 682.14,78.24 C683.60,87.67 681.64,96.06 676.08,104.18 L 672.20 109.86 L 683.07 123.17 C689.04,130.49 694.40,136.63 694.97,136.82 C695.67,137.06 696.00,122.46 696.00,91.58 L 696.00 46.00 L 717.00 46.00 L 738.00 46.00 L 738.00 82.00 L 738.00 118.00 L 763.00 118.00 L 788.00 118.00 L 788.00 82.00 L 788.00 46.00 L 822.77 46.00 C854.76,46.00 858.14,46.16 865.02,48.06 C880.45,52.30 894.89,63.89 901.48,77.31 C905.97,86.47 907.28,93.40 906.44,103.50 C904.86,122.35 897.31,135.07 883.00,142.94 L 877.50 145.96 L 910.25 145.98 L 943.00 146.00 L 943.00 167.00 L 943.00 188.00 L 915.22 188.00 C891.70,188.00 887.10,188.24 885.22,189.56 C882.48,191.47 882.42,193.93 884.96,198.92 C887.68,204.26 893.91,209.45 911.94,221.41 C933.70,235.84 940.22,243.46 943.02,257.72 C946.26,274.19 935.53,294.74 919.68,302.44 C908.51,307.86 906.30,308.04 855.94,307.76 L 809.50 307.50 L 809.00 291.12 L 808.50 274.74 L 805.25 279.76 C797.69,291.44 782.90,301.46 767.00,305.68 C757.23,308.27 735.07,308.01 724.70,305.18 C703.60,299.43 687.37,284.84 681.84,266.67 L 679.75 259.83 L 675.92 266.91 C662.70,291.26 640.39,307.97 613.79,313.42 C607.09,314.79 584.73,315.56 581.50,314.52 ZM 584.83 305.89 C576.53,295.67 572.94,290.38 568.93,282.48 C566.57,277.82 564.07,274.00 563.39,274.00 C561.25,274.00 549.61,280.47 543.62,285.00 L 537.88 289.33 L 540.69 291.68 C551.27,300.53 573.58,309.76 584.83,309.94 L 588.17 310.00 L 584.83 305.89 ZM 616.06 307.89 C620.70,306.72 628.10,304.05 632.50,301.95 C640.93,297.93 650.92,291.19 650.97,289.50 C651.02,287.28 629.90,274.03 626.28,274.01 C625.61,274.00 623.90,276.45 622.49,279.44 C619.15,286.50 611.46,298.22 606.17,304.31 C603.88,306.96 602.00,309.32 602.00,309.56 C602.00,310.59 608.21,309.85 616.06,307.89 ZM 599.12 302.25 C604.55,296.48 608.55,290.97 613.01,283.11 C619.96,270.83 620.02,271.45 611.82,269.59 C602.98,267.60 589.53,267.55 579.44,269.48 C575.19,270.29 571.52,271.15 571.29,271.38 C570.45,272.22 578.06,285.98 583.06,292.64 C588.44,299.81 593.97,306.00 594.99,306.00 C595.32,306.00 597.18,304.31 599.12,302.25 ZM 544.50 276.11 C547.25,274.33 552.09,271.69 555.25,270.23 C558.63,268.67 561.00,266.95 560.99,266.04 C560.99,265.19 560.08,261.58 558.98,258.00 C557.88,254.43 556.47,247.11 555.85,241.75 L 554.72 232.00 L 532.36 232.00 L 510.00 232.00 L 510.00 236.52 C510.00,248.17 518.83,268.92 528.31,279.56 L 533.27 285.13 L 536.39 282.23 C538.10,280.64 541.75,277.88 544.50,276.11 ZM 661.67 279.64 C670.54,269.54 678.17,251.78 679.67,237.75 L 680.28 232.00 L 657.72 232.00 L 635.16 232.00 L 634.49 238.75 C633.94,244.35 631.27,256.44 628.58,265.50 C628.08,267.20 629.08,268.00 635.24,270.79 C639.23,272.60 645.42,276.28 649.00,278.96 C652.58,281.65 656.02,283.88 656.67,283.93 C657.31,283.97 659.56,282.04 661.67,279.64 ZM 755.41 267.73 C760.23,264.97 762.86,261.53 764.04,256.42 C764.54,254.27 764.96,229.44 764.98,201.25 L 765.00 150.00 L 747.00 150.00 L 729.00 150.00 L 729.00 203.55 C729.00,261.05 728.90,259.86 734.15,264.63 C740.51,270.39 748.67,271.59 755.41,267.73 ZM 576.18 263.43 C585.71,261.39 604.31,261.38 613.93,263.40 C618.02,264.26 621.54,264.80 621.75,264.58 C622.91,263.42 627.04,245.67 627.61,239.36 L 628.28 232.00 L 595.14 232.00 L 562.00 232.00 L 562.00 236.45 C562.00,242.70 567.06,265.00 568.48,265.00 C568.69,265.00 572.16,264.30 576.18,263.43 ZM 864.78 262.44 C871.28,257.89 864.39,249.23 842.71,234.73 C828.10,224.95 819.31,217.30 816.24,211.69 C814.54,208.57 814.49,209.11 814.00,235.00 C813.72,249.57 813.14,262.06 812.69,262.75 C812.05,263.74 817.18,264.00 837.22,264.00 C858.53,264.00 862.91,263.75 864.78,262.44 ZM 258.17 235.50 C258.44,235.22 256.41,228.92 253.64,221.50 C248.96,208.94 247.00,205.49 247.00,209.75 C246.99,210.71 245.02,216.68 242.61,223.00 C240.21,229.32 238.43,234.84 238.68,235.25 C239.16,236.07 257.36,236.31 258.17,235.50 ZM 555.18 217.00 C555.88,208.19 558.07,196.57 559.97,191.59 C560.57,190.01 560.93,188.63 560.78,188.51 C560.63,188.39 558.03,187.18 555.00,185.81 C549.58,183.35 541.21,178.14 535.65,173.75 L 532.80 171.50 L 528.88 176.00 C518.93,187.43 511.19,205.00 510.26,218.27 L 509.71 226.04 L 532.11 225.77 L 554.50 225.50 L 555.18 217.00 ZM 628.36 225.23 C629.55,223.29 624.51,193.18 622.68,191.35 C622.50,191.17 619.68,191.77 616.43,192.68 C607.81,195.10 582.82,195.08 574.10,192.65 C568.88,191.20 567.55,191.11 566.88,192.18 C564.65,195.76 560.29,223.04 561.60,225.17 C562.25,226.21 627.71,226.28 628.36,225.23 ZM 680.00 221.66 C680.00,210.33 671.52,189.15 662.43,177.75 C659.90,174.59 657.53,172.00 657.15,172.00 C656.77,172.00 653.77,174.04 650.48,176.53 C647.19,179.01 641.02,182.73 636.77,184.78 C630.31,187.89 629.13,188.83 629.56,190.50 C633.13,204.45 633.97,208.73 634.56,216.00 C634.94,220.68 635.45,224.84 635.69,225.25 C635.92,225.66 645.99,226.00 658.06,226.00 L 680.00 226.00 L 680.00 221.66 ZM 438.18 175.25 L 449.68 146.50 L 469.50 146.23 L 489.32 145.96 L 484.91 143.12 C478.74,139.16 468.74,128.39 465.74,122.47 C462.14,115.37 460.00,107.47 460.00,101.32 C460.00,98.39 459.65,96.00 459.23,96.00 C458.81,96.00 453.97,108.04 448.48,122.75 L 438.50 149.50 L 424.07 149.50 L 409.63 149.50 L 402.74 131.00 C398.95,120.82 395.53,112.17 395.14,111.76 C394.55,111.15 382.00,143.17 382.00,145.30 C382.00,145.69 386.61,146.01 392.25,146.01 L 402.50 146.03 L 413.99 175.01 C420.31,190.96 425.75,204.00 426.08,204.00 C426.41,204.00 431.85,191.06 438.18,175.25 ZM 679.00 172.50 L 679.00 150.00 L 669.21 150.00 L 659.43 150.00 L 647.46 135.52 L 635.50 121.03 L 626.72 121.02 L 617.94 121.00 L 618.22 132.66 L 618.50 144.32 L 625.00 146.51 C646.82,153.88 665.15,169.18 675.03,188.28 C676.94,191.97 678.61,194.99 678.75,195.00 C678.89,195.00 679.00,184.88 679.00,172.50 ZM 517.37 183.89 C520.80,177.78 531.38,166.35 538.99,160.54 C547.29,154.20 557.30,148.98 566.89,145.99 L 575.50 143.31 L 575.78 130.65 C575.93,123.69 575.71,118.01 575.28,118.03 C574.85,118.05 572.92,120.83 571.00,124.21 C561.02,141.73 541.37,153.00 520.79,153.00 L 513.00 153.00 L 513.00 171.00 C513.00,180.90 513.34,189.00 513.75,189.00 C514.16,189.00 515.79,186.70 517.37,183.89 ZM 613.30 186.60 C616.48,185.85 619.32,185.01 619.61,184.72 C620.36,183.98 612.51,168.71 608.27,162.66 C602.61,154.58 596.64,148.00 595.00,148.02 C593.22,148.04 583.79,159.11 578.53,167.37 C573.09,175.90 569.61,184.14 571.05,185.03 C571.70,185.43 575.66,186.30 579.86,186.96 C584.06,187.62 588.17,188.32 589.00,188.53 C591.78,189.21 607.45,187.96 613.30,186.60 ZM 567.15 174.22 C569.16,169.98 573.99,162.11 577.87,156.74 L 584.94 146.99 L 580.72 147.59 C573.61,148.62 568.83,149.96 560.87,153.18 C553.10,156.32 539.99,164.54 539.26,166.73 C539.03,167.40 540.91,169.41 543.43,171.22 C548.80,175.07 561.06,181.97 562.50,181.96 C563.05,181.95 565.14,178.47 567.15,174.22 ZM 633.78 179.10 C639.50,176.20 651.00,168.18 651.00,167.08 C651.00,166.15 644.99,161.68 638.50,157.79 C631.33,153.50 617.60,148.53 610.05,147.50 C603.82,146.65 603.53,145.42 612.29,157.11 C614.93,160.62 619.20,167.66 621.79,172.75 C624.38,177.83 626.85,181.99 627.28,182.00 C627.71,182.00 630.63,180.70 633.78,179.10 ZM 825.64 153.55 L 830.29 150.00 L 822.14 150.00 L 814.00 150.00 L 814.00 158.74 L 814.00 167.47 L 817.49 162.29 C819.41,159.44 823.08,155.51 825.64,153.55 ZM 528.83 120.13 C538.10,116.37 543.57,109.48 544.66,100.18 C546.38,85.65 534.73,73.56 519.07,73.61 C499.10,73.68 486.77,93.03 496.33,109.30 C502.57,119.91 517.29,124.82 528.83,120.13 ZM 859.50 115.10 C866.73,111.76 872.03,103.98 871.98,96.78 C871.93,89.17 864.86,80.17 857.28,78.06 C855.20,77.48 847.99,77.01 841.25,77.01 L 829.00 77.00 L 829.00 96.33 C829.00,106.97 829.30,115.97 829.67,116.33 C830.03,116.70 836.00,116.99 842.92,116.98 C853.03,116.96 856.29,116.59 859.50,115.10 ZM 639.34 89.89 C644.43,87.57 645.71,78.62 641.55,74.45 C639.25,72.16 638.41,72.00 628.55,72.00 L 618.00 72.00 L 618.00 81.50 L 618.00 91.00 L 627.45 91.00 C632.65,91.00 638.00,90.50 639.34,89.89 ZM 928.32 108.12 C923.44,104.58 921.00,99.71 921.00,93.50 C921.00,85.01 927.37,78.43 936.60,77.39 C946.07,76.32 955.00,84.35 955.00,93.95 C955.00,98.91 951.21,106.01 947.10,108.74 C941.90,112.20 933.57,111.92 928.32,108.12 ZM 943.51 106.56 C950.16,103.78 953.22,93.57 949.36,87.04 C943.94,77.86 929.34,79.29 925.49,89.39 C921.08,100.93 932.02,111.36 943.51,106.56 ZM 931.00 93.50 L 931.00 84.00 L 935.43 84.00 C942.62,84.00 945.00,85.35 945.00,89.42 C945.00,91.32 944.55,93.16 944.01,93.50 C943.40,93.87 943.79,95.63 945.01,98.01 C947.52,102.93 947.51,103.00 944.51,103.00 C942.62,103.00 941.68,102.17 940.56,99.50 C939.76,97.57 938.40,96.00 937.55,96.00 C936.45,96.00 936.00,97.00 936.00,99.50 C936.00,102.57 935.69,103.00 933.50,103.00 C931.01,103.00 931.00,102.97 931.00,93.50 ZM 940.32 90.60 C941.00,88.84 940.19,88.00 937.83,88.00 C936.67,88.00 936.00,88.73 936.00,90.00 C936.00,92.33 939.48,92.81 940.32,90.60 Z" fill="rgb(254,254,254)">
</g>
</svg>