<svg xmlns="http://www.w3.org/2000/svg" id="Layer_1" data-name="Layer 1" viewBox="0 0 200 100"><defs></defs><path class="cls-1" d="M15.83,34.99h6.8v30.02h-6.8v-11.99H6.84v11.99H.03v-30.02H6.84v11.62H15.83v-11.62Zm39.21,30.02h6.89v-30.02h-6.89v30.02Zm29.28-11.93l5.96,11.93h-7.41l-5.13-10.8h-4.08v10.8h-6.85v-30.02h11.9c8.03,0,10.85,5.17,10.88,9.59,.03,3.87-2.12,7.02-5.27,8.5h0Zm-5.61-12.08h-5.1v7.09h5.18c2.65,0,4-1.18,4-3.5,0-1.78-1.4-3.58-4.08-3.58Zm26.35-.36c1.66,0,3.05,.55,3.83,1.51,.71,.85,1.05,1.64,1.15,2.63l.06,.66h6.91l-.05-.81c-.2-1.86-.89-4.51-3.01-6.64-2.25-2.24-5.49-3.52-8.9-3.52s-6.51,1.19-8.81,3.44c-3.22,3.14-3.84,6.82-3.84,12.12s.63,8.97,3.84,12.12c2.27,2.22,5.32,3.4,8.81,3.4s6.6-1.31,8.9-3.6c1.65-1.65,2.72-4.02,3.01-6.69l.05-.8h-6.91l-.06,.66c-.1,1.05-.48,1.95-1.16,2.76-.78,.96-2.21,1.54-3.83,1.54-1.5,0-2.94-.61-3.96-1.67-1.81-1.84-1.81-5.24-1.81-7.71s0-5.87,1.82-7.72c1.01-1.06,2.45-1.66,3.95-1.66h0Zm22.33-5.65h-6.8v30.02h18.6v-6.37h-11.79v-23.65Zm30.62,18.25c0,4.23-1.31,6.12-4.63,6.12s-4.63-1.89-4.63-6.12v-18.25h-6.8v18.33c0,7.87,3.78,12.21,11.44,12.21s11.44-4.34,11.44-12.21v-18.33h-6.8v18.25Zm33.72,2.74c0,2.97-1.13,5.39-3.26,6.98-2.31,1.73-4.97,2.08-8.24,2.08h-11.25v-30.06h11.25c3.06,0,5.34,.54,7.16,1.69,2.29,1.47,3.72,4.08,3.72,6.82,0,1.85-.75,4.49-2.85,6.03,2.18,1.45,3.47,3.84,3.47,6.46h0Zm-15.99,2.94h4.7c1.33,0,4.41-.3,4.41-3.06,0-2.3-1.39-3.42-4.24-3.42h-4.86v6.48h0Zm4.82-12.29c2.5,0,3.67-.89,3.67-2.82s-1.24-2.9-3.79-2.9h-4.7v5.72h4.82ZM42.91,34.99l9.55,30.02h-7.14l-1.68-5.48h-9.74l-1.74,5.48h-6.93l9.73-30.02h7.94Zm-4.05,8.9l-3.03,9.57h5.96l-2.93-9.57Zm157.82-2.88c-1.89,0-3.29-1.44-3.29-3.27s1.4-3.28,3.29-3.28,3.29,1.44,3.29,3.27-1.4,3.28-3.29,3.28Zm0-5.98c-1.61,0-2.68,1.15-2.68,2.71s1.07,2.7,2.68,2.7,2.68-1.15,2.68-2.71-1.07-2.7-2.68-2.7Zm.74,4.36l-.58-1.25h-.68v1.25h-.61v-3.41h1.29c.66,0,1.24,.37,1.24,1.07,0,.44-.2,.8-.63,.99l.65,1.35h-.67Zm-.59-2.86h-.68v1.05h.68c.36,0,.6-.16,.6-.53,0-.35-.27-.52-.6-.52h0Z"></path></svg>