<svg xmlns="http://www.w3.org/2000/svg" id="Layer_1" data-name="Layer 1" viewBox="0 0 200 100"><defs></defs><polygon class="cls-1" points="5.26 40.66 5.26 53.68 16.54 60.19 27.82 53.68 27.82 40.66 16.54 34.15 5.26 40.66"></polygon><path class="cls-2" d="M16.54,29.94l14.92,8.61v17.23l-14.92,8.61L1.62,55.78v-17.23l14.92-8.61Z"></path><polygon class="cls-1" points="194.22 60.83 194.22 64.1 197.05 65.74 199.88 64.1 199.88 60.83 197.05 59.2 194.22 60.83"></polygon><polygon class="cls-1" points="199.88 30.9 197.05 29.26 194.22 30.9 194.22 34.17 194.22 51.09 194.22 51.09 194.22 54.36 197.05 56 199.88 54.36 199.88 52.73 199.88 51.09 199.88 34.17 199.88 34.17 199.88 30.9"></polygon><polygon class="cls-1" points="62.54 63.87 67.29 63.87 73.22 30.78 67.85 30.78 64.47 51.87 60.68 30.78 56.13 30.78 52.2 51.87 48.54 30.78 43.38 30.78 49.72 63.87 54.47 63.87 58.54 42.1 62.54 63.87"></polygon><polygon class="cls-1" points="77.7 30.78 83.63 30.78 83.63 44.22 89.49 44.22 89.49 30.78 95.21 30.78 95.21 63.87 89.56 63.87 89.63 49.11 83.63 49.18 83.56 63.87 77.7 63.87 77.7 30.78"></polygon><polygon class="cls-1" points="169.93 30.78 175.86 30.78 175.86 44.22 181.72 44.22 181.72 30.78 187.44 30.78 187.44 63.87 181.79 63.87 181.86 49.11 175.86 49.18 175.79 63.87 169.93 63.87 169.93 30.78"></polygon><path class="cls-1" d="M109.9,30.05h-.56c-4.74,0-8.58,3.84-8.58,8.58v17.39c0,4.74,3.84,8.58,8.58,8.58h.56c4.74,0,8.58-3.84,8.58-8.58v-17.39c0-4.74-3.84-8.58-8.58-8.58Zm2.85,26.42c0,1.73-1.4,3.14-3.14,3.14h0c-1.73,0-3.14-1.4-3.14-3.14v-18.31c0-1.73,1.4-3.14,3.14-3.14h0c1.73,0,3.14,1.4,3.14,3.14v18.31Z"></path><path class="cls-1" d="M133.66,30.05h-.56c-4.74,0-8.58,3.84-8.58,8.58v17.39c0,4.74,3.84,8.58,8.58,8.58h.56c4.74,0,8.58-3.84,8.58-8.58v-17.39c0-4.74-3.84-8.58-8.58-8.58Zm2.85,26.42c0,1.73-1.4,3.14-3.14,3.14h0c-1.73,0-3.14-1.4-3.14-3.14v-18.31c0-1.73,1.4-3.14,3.14-3.14h0c1.73,0,3.14,1.4,3.14,3.14v18.31Z"></path><path class="cls-1" d="M156,35.3c-.51-.02-.88,.11-.99,.15-1.28,.49-1.68,1.94-1.72,2.19-.11,.62-.13,1.26,.01,1.77,.08,.28,.1,.81,1.35,2.29l7.15,6.66c.93,.97,1.48,1.81,2.02,3.13,.42,1.05,.76,1.89,.9,3.1,.16,1.42-.05,2.5-.17,3.14-.18,.92-.37,1.86-1,2.9-.87,1.43-2.05,2.15-2.62,2.48-1.54,.92-2.97,1.08-3.86,1.17-.92,.1-2.25,.32-3.76-.17-1.51-.49-2.52-1.19-2.98-1.6-.55-.49-1.27-1.31-1.9-2.45-.52-.96-.79-1.75-.95-2.4-.32-1.28-.4-2.58-.4-2.58l5.64-.76s-.07,1.53,.69,3.03c.21,.42,.69,1.37,1.76,1.79,1.27,.5,2.43-.09,2.58-.17,.1-.05,1.34-.6,1.46-1.96,.09-1,0-1.74-.32-2.51-.22-.53-.67-1.48-2.19-3.02-1.01-1.03-1.65-1.57-2.65-2.34-1.46-1.13-3.8-2.97-5.12-5.45-1.29-2.43-1.27-4.41-1.28-4.91-.03-1.29,.03-3.01,1.07-4.83,.74-1.29,1.71-2,2.14-2.31,2.39-1.71,5.59-1.95,8.24-1.07,.87,.29,1.62,.55,3.27,2,.48,.42,1.32,1.51,1.78,3.32,.35,1.38,.38,2.71,.38,2.71l-5.57,.33c.02-.39,0-1.24-.52-2.08-.11-.17-.97-1.5-2.45-1.56Z"></path></svg>